<mxfile host="app.diagrams.net" modified="2022-07-28T17:41:51.348Z" agent="5.0 (Windows NT 10.0; Win64; x64) AppleWebKit/537.36 (KHTML, like Gecko) Chrome/103.0.0.0 Safari/537.36" etag="oj3G9O6Sc45ng3KH37VX" version="20.2.2" type="github" pages="4">
  <diagram id="OoVfKozZZP19OXvTra97" name="Monster">
    <mxGraphModel dx="1369" dy="844" grid="1" gridSize="10" guides="1" tooltips="1" connect="1" arrows="1" fold="1" page="1" pageScale="1" pageWidth="850" pageHeight="1100" math="0" shadow="0">
      <root>
        <mxCell id="0" />
        <mxCell id="1" parent="0" />
        <mxCell id="rQL7H8hPHh0mbTXPi9bD-1" value="Normal Monster Support" style="swimlane;" parent="1" vertex="1">
          <mxGeometry x="20" y="20" width="290" height="260" as="geometry" />
        </mxCell>
        <mxCell id="rQL7H8hPHh0mbTXPi9bD-2" value="Unexpected Dai" style="whiteSpace=wrap;html=1;fillColor=#ffe6cc;strokeColor=#d79b00;" parent="rQL7H8hPHh0mbTXPi9bD-1" vertex="1">
          <mxGeometry x="20" y="40" width="120" height="60" as="geometry" />
        </mxCell>
        <mxCell id="rQL7H8hPHh0mbTXPi9bD-6" value="Link Spider" style="whiteSpace=wrap;html=1;fillColor=#f0a30a;fontColor=#000000;strokeColor=#BD7000;" parent="rQL7H8hPHh0mbTXPi9bD-1" vertex="1">
          <mxGeometry x="150" y="40" width="120" height="60" as="geometry" />
        </mxCell>
        <mxCell id="rQL7H8hPHh0mbTXPi9bD-3" value="Heart of the Underdog" style="whiteSpace=wrap;html=1;fillColor=#dae8fc;strokeColor=#6c8ebf;" parent="rQL7H8hPHh0mbTXPi9bD-1" vertex="1">
          <mxGeometry x="150" y="110" width="120" height="60" as="geometry" />
        </mxCell>
        <mxCell id="waRzVCXTt-gT5jvSgv9V-1" value="Dragon Horn Hunter" style="whiteSpace=wrap;html=1;fillColor=#dae8fc;strokeColor=#6c8ebf;" parent="rQL7H8hPHh0mbTXPi9bD-1" vertex="1">
          <mxGeometry x="20" y="110" width="120" height="60" as="geometry" />
        </mxCell>
        <mxCell id="R7ZuBB_lxKhwf4n1fkfq-1" value="Lancephorhynchus" style="whiteSpace=wrap;html=1;" parent="rQL7H8hPHh0mbTXPi9bD-1" vertex="1">
          <mxGeometry x="20" y="180" width="120" height="60" as="geometry" />
        </mxCell>
        <mxCell id="rQL7H8hPHh0mbTXPi9bD-4" value="Generic Monster Support" style="swimlane;" parent="1" vertex="1">
          <mxGeometry x="20" y="300" width="210" height="120" as="geometry" />
        </mxCell>
        <mxCell id="rQL7H8hPHh0mbTXPi9bD-5" value="Power of the Guardians" style="whiteSpace=wrap;html=1;fillColor=#ffe6cc;strokeColor=#d79b00;" parent="rQL7H8hPHh0mbTXPi9bD-4" vertex="1">
          <mxGeometry x="45" y="40" width="120" height="60" as="geometry" />
        </mxCell>
        <mxCell id="PYZ7pGFFv4HDBDFH97G1-1" value="Normal Monster Unchained summon" style="swimlane;" parent="1" vertex="1">
          <mxGeometry x="330" y="20" width="300" height="120" as="geometry" />
        </mxCell>
        <mxCell id="rQL7H8hPHh0mbTXPi9bD-8" value="Link Spider" style="whiteSpace=wrap;html=1;fillColor=#f0a30a;fontColor=#000000;strokeColor=#BD7000;" parent="PYZ7pGFFv4HDBDFH97G1-1" vertex="1">
          <mxGeometry x="20" y="40" width="120" height="60" as="geometry" />
        </mxCell>
        <mxCell id="hV6YfNnXjgyquWolyUV3-1" value="Unchained Abomination" style="whiteSpace=wrap;html=1;fillColor=#6a00ff;fontColor=#ffffff;strokeColor=#3700CC;" parent="PYZ7pGFFv4HDBDFH97G1-1" vertex="1">
          <mxGeometry x="160" y="40" width="120" height="60" as="geometry" />
        </mxCell>
        <mxCell id="hV6YfNnXjgyquWolyUV3-2" value="" style="edgeStyle=orthogonalEdgeStyle;rounded=0;orthogonalLoop=1;jettySize=auto;html=1;" parent="PYZ7pGFFv4HDBDFH97G1-1" source="rQL7H8hPHh0mbTXPi9bD-8" target="hV6YfNnXjgyquWolyUV3-1" edge="1">
          <mxGeometry relative="1" as="geometry" />
        </mxCell>
      </root>
    </mxGraphModel>
  </diagram>
  <diagram id="tqtPxRGmtKnDjlXkXx3w" name="Direct Attack">
    <mxGraphModel dx="1369" dy="844" grid="1" gridSize="10" guides="1" tooltips="1" connect="1" arrows="1" fold="1" page="1" pageScale="1" pageWidth="850" pageHeight="1100" math="0" shadow="0">
      <root>
        <mxCell id="0" />
        <mxCell id="1" parent="0" />
        <mxCell id="i6ivA8VLhFzzxt_EUd3W-1" value="Berserker Soul" style="whiteSpace=wrap;html=1;fillColor=#e1d5e7;strokeColor=#9673a6;" parent="1" vertex="1">
          <mxGeometry x="40" y="40" width="120" height="60" as="geometry" />
        </mxCell>
        <mxCell id="HmCaL-YEFzU1u5kMsk7C-1" value="Scrap Iron Scarecrow" style="whiteSpace=wrap;html=1;fillColor=#ffe6cc;strokeColor=#d79b00;" parent="1" vertex="1">
          <mxGeometry x="160" y="40" width="120" height="60" as="geometry" />
        </mxCell>
        <mxCell id="-nHRircxOOFd57Krlaqe-1" value="No-backrow Lock" style="swimlane;" parent="1" vertex="1">
          <mxGeometry x="320" y="40" width="160" height="120" as="geometry" />
        </mxCell>
        <mxCell id="-nHRircxOOFd57Krlaqe-2" value="Performapal Rainbow-Five Magician" style="whiteSpace=wrap;html=1;fillColor=#ffe6cc;strokeColor=#d79b00;" parent="-nHRircxOOFd57Krlaqe-1" vertex="1">
          <mxGeometry x="20" y="40" width="120" height="60" as="geometry" />
        </mxCell>
        <mxCell id="-nHRircxOOFd57Krlaqe-3" style="edgeStyle=orthogonalEdgeStyle;rounded=0;orthogonalLoop=1;jettySize=auto;html=1;entryX=1;entryY=0.5;entryDx=0;entryDy=0;" parent="-nHRircxOOFd57Krlaqe-1" source="-nHRircxOOFd57Krlaqe-4" target="-nHRircxOOFd57Krlaqe-2" edge="1">
          <mxGeometry relative="1" as="geometry" />
        </mxCell>
        <mxCell id="-nHRircxOOFd57Krlaqe-4" value="Performapal Skullcrobat Joker" style="whiteSpace=wrap;html=1;fillColor=#ffe6cc;strokeColor=#d79b00;" parent="-nHRircxOOFd57Krlaqe-1" vertex="1">
          <mxGeometry x="200" y="40" width="120" height="60" as="geometry" />
        </mxCell>
        <mxCell id="dnrC9ZARG0tm4f3PevyD-1" value="Power of the Guardians" style="whiteSpace=wrap;html=1;fillColor=#ffe6cc;strokeColor=#d79b00;" parent="1" vertex="1">
          <mxGeometry x="340" y="190" width="120" height="60" as="geometry" />
        </mxCell>
        <mxCell id="dnrC9ZARG0tm4f3PevyD-2" value="Altergeist Meluseek" style="whiteSpace=wrap;html=1;fillColor=#ffe6cc;strokeColor=#d79b00;" parent="1" vertex="1">
          <mxGeometry x="340" y="270" width="120" height="60" as="geometry" />
        </mxCell>
      </root>
    </mxGraphModel>
  </diagram>
  <diagram id="FRVV5idRbIKV1SfBTnvN" name="Double Strike">
    <mxGraphModel dx="1673" dy="887" grid="1" gridSize="10" guides="1" tooltips="1" connect="1" arrows="1" fold="1" page="1" pageScale="1" pageWidth="850" pageHeight="1100" math="0" shadow="0">
      <root>
        <mxCell id="0" />
        <mxCell id="1" parent="0" />
        <mxCell id="Ubdyn0iR39syvh83XVfV-2" value="Double-strike Support" style="swimlane;" vertex="1" parent="1">
          <mxGeometry x="400" y="75" width="160" height="120" as="geometry" />
        </mxCell>
        <mxCell id="Ubdyn0iR39syvh83XVfV-3" value="Power of Guardians" style="whiteSpace=wrap;html=1;fillColor=#ffe6cc;strokeColor=#d79b00;" vertex="1" parent="Ubdyn0iR39syvh83XVfV-2">
          <mxGeometry x="20" y="40" width="120" height="60" as="geometry" />
        </mxCell>
        <mxCell id="Ubdyn0iR39syvh83XVfV-4" value="Double-strikers" style="swimlane;" vertex="1" parent="1">
          <mxGeometry x="40" y="40" width="290" height="190" as="geometry" />
        </mxCell>
        <mxCell id="Ubdyn0iR39syvh83XVfV-5" value="Kachi Kochi Dragon" style="whiteSpace=wrap;html=1;fillColor=#f0a30a;fontColor=#000000;strokeColor=#BD7000;" vertex="1" parent="Ubdyn0iR39syvh83XVfV-4">
          <mxGeometry x="20" y="40" width="120" height="60" as="geometry" />
        </mxCell>
        <mxCell id="Ubdyn0iR39syvh83XVfV-6" value="Gunkan Suship Ikura-class Dreadnought" style="whiteSpace=wrap;html=1;fillColor=#0050ef;fontColor=#ffffff;strokeColor=#001DBC;" vertex="1" parent="Ubdyn0iR39syvh83XVfV-4">
          <mxGeometry x="20" y="110" width="120" height="60" as="geometry" />
        </mxCell>
        <mxCell id="Ubdyn0iR39syvh83XVfV-8" value="Altergeist Memorygant" style="whiteSpace=wrap;html=1;fillColor=#6a00ff;strokeColor=#3700CC;fontColor=#ffffff;" vertex="1" parent="Ubdyn0iR39syvh83XVfV-4">
          <mxGeometry x="150" y="40" width="120" height="60" as="geometry" />
        </mxCell>
        <mxCell id="Ubdyn0iR39syvh83XVfV-7" value="" style="shape=link;html=1;rounded=0;entryX=0;entryY=0.5;entryDx=0;entryDy=0;" edge="1" parent="1" target="Ubdyn0iR39syvh83XVfV-2" source="Ubdyn0iR39syvh83XVfV-4">
          <mxGeometry width="100" relative="1" as="geometry">
            <mxPoint x="200" y="150" as="sourcePoint" />
            <mxPoint x="190" y="180" as="targetPoint" />
          </mxGeometry>
        </mxCell>
      </root>
    </mxGraphModel>
  </diagram>
  <diagram id="U2io6W6b9xUoT7eE6ZtM" name="OTK">
    <mxGraphModel dx="1369" dy="844" grid="1" gridSize="10" guides="1" tooltips="1" connect="1" arrows="1" fold="1" page="1" pageScale="1" pageWidth="850" pageHeight="1100" math="0" shadow="0">
      <root>
        <mxCell id="0" />
        <mxCell id="1" parent="0" />
        <mxCell id="6j-BkQffIsn6v26eQVnZ-1" value="Raigeki" style="whiteSpace=wrap;html=1;fillColor=#e1d5e7;strokeColor=#9673a6;" parent="1" vertex="1">
          <mxGeometry x="40" y="40" width="120" height="60" as="geometry" />
        </mxCell>
        <mxCell id="6j-BkQffIsn6v26eQVnZ-2" value="Harpie&#39;s Feather Duster" style="whiteSpace=wrap;html=1;fillColor=#e1d5e7;strokeColor=#9673a6;" parent="1" vertex="1">
          <mxGeometry x="160" y="40" width="120" height="60" as="geometry" />
        </mxCell>
        <mxCell id="6j-BkQffIsn6v26eQVnZ-3" value="Lightning Storm" style="whiteSpace=wrap;html=1;fillColor=#e1d5e7;strokeColor=#9673a6;" parent="1" vertex="1">
          <mxGeometry x="280" y="40" width="120" height="60" as="geometry" />
        </mxCell>
        <mxCell id="6j-BkQffIsn6v26eQVnZ-4" value="Dark Hole" style="whiteSpace=wrap;html=1;fillColor=#ffe6cc;strokeColor=#d79b00;" parent="1" vertex="1">
          <mxGeometry x="40" y="100" width="120" height="60" as="geometry" />
        </mxCell>
      </root>
    </mxGraphModel>
  </diagram>
</mxfile>
